HIERARCHY
ROOT Hips
{
  OFFSET 267.745 86.9975 -272.335
  CHANNELS 6 Xposition Yposition Zposition Zrotation Xrotation Yrotation
  JOINT LeftUpLeg
  {
    OFFSET 8.64259 1.95398 -2.38835
    CHANNELS 3 Zrotation Xrotation Yrotation
    JOINT LeftLeg
    {
      OFFSET 43.7702 0 0
      CHANNELS 3 Zrotation Xrotation Yrotation
      JOINT LeftFoot
      {
        OFFSET 40.6238 0 0
        CHANNELS 3 Zrotation Xrotation Yrotation
        JOINT LeftToeBase
        {
          OFFSET 12.7242 0 0
          CHANNELS 3 Zrotation Xrotation Yrotation
          End Site
          {
            OFFSET 0 0 0
          }
        }
      }
    }
  }
  JOINT RightUpLeg
  {
    OFFSET -8.2249 1.95398 -2.59336
    CHANNELS 3 Zrotation Xrotation Yrotation
    JOINT RightLeg
    {
      OFFSET 43.5653 0 0
      CHANNELS 3 Zrotation Xrotation Yrotation
      JOINT RightFoot
      {
        OFFSET 40.6238 0 0
        CHANNELS 3 Zrotation Xrotation Yrotation
        JOINT RightToeBase
        {
          OFFSET 12.7242 0 0
          CHANNELS 3 Zrotation Xrotation Yrotation
          End Site
          {
            OFFSET 0 0 0
          }
        }
      }
    }
  }
  JOINT Spine
  {
    OFFSET 0.165834 0.87714 6.61349
    CHANNELS 3 Zrotation Xrotation Yrotation
    JOINT Spine1
    {
      OFFSET 7.38963 1.71661e-005 0
      CHANNELS 3 Zrotation Xrotation Yrotation
      JOINT Spine2
      {
        OFFSET 11.9445 1.14441e-005 0
        CHANNELS 3 Zrotation Xrotation Yrotation
        JOINT Spine3
        {
          OFFSET 14.7254 4.19617e-005 0
          CHANNELS 3 Zrotation Xrotation Yrotation
          JOINT Spine4
          {
            OFFSET 10.9679 0 0
            CHANNELS 3 Zrotation Xrotation Yrotation
            JOINT RightShoulder
            {
              OFFSET 2.46616 -1.6653 3.69651
              CHANNELS 3 Zrotation Xrotation Yrotation
              JOINT RightArm
              {
                OFFSET 13.0012 0 0
                CHANNELS 3 Zrotation Xrotation Yrotation
                JOINT RightForeArm
                {
                  OFFSET 28.7848 1.52588e-005 0
                  CHANNELS 3 Zrotation Xrotation Yrotation
                  JOINT RightHand
                  {
                    OFFSET 26.5688 1.52588e-005 0
                    CHANNELS 3 Zrotation Xrotation Yrotation
                    End Site
                    {
                      OFFSET 0 0 0
                    }
                  }
                }
              }
            }
            JOINT LeftShoulder
            {
              OFFSET 2.38034 -1.29275 -3.7523
              CHANNELS 3 Zrotation Xrotation Yrotation
              JOINT LeftArm
              {
                OFFSET 16.3182 6.10352e-005 0
                CHANNELS 3 Zrotation Xrotation Yrotation
                JOINT LeftForeArm
                {
                  OFFSET 27.0901 0 0
                  CHANNELS 3 Zrotation Xrotation Yrotation
                  JOINT LeftHand
                  {
                    OFFSET 24.5451 1.52588e-005 0
                    CHANNELS 3 Zrotation Xrotation Yrotation
                    End Site
                    {
                      OFFSET 0 0 0
                    }
                  }
                }
              }
            }
            JOINT Neck
            {
              OFFSET 5.0226 -0.0266342 0
              CHANNELS 3 Zrotation Xrotation Yrotation
              JOINT Head
              {
                OFFSET 6.69364 2.86102e-005 0
                CHANNELS 3 Zrotation Xrotation Yrotation
                End Site
                {
                  OFFSET 0 0 0
                }
              }
            }
          }
        }
      }
    }
  }
}
MOTION
Frames:	18
Frame Time:	0.0416667
-1.40729 97.0929 -12.6499 135.535 -83.0498 134.949 -174.19 0.050687 91.8461 -12.1487 6.55944 2.44565 64.5201 2.50606 -1.69078 28.496 -0.132124 1.36655 174.038 -0.385657 86.5476 -16.0495 -2.70446 -0.363446 68.4494 -2.72742 4.53106 27.8848 0.408743 -1.8754 0.17595 6.02673 -89.869 14.8201 0.413166 0.202886 3.14922 0.421704 0.184496 -19.3862 0.333084 0.317672 0.62646 0.333097 0.317678 107.284 -0.939777 -62.2934 22.0662 39.8819 -104.986 17.5692 42.2731 -28.2266 -5.11361 0.323147 -14.0086 -75.4346 -15.342 102.869 -10.3504 -43.5039 -115.617 1.34927 -42.7253 -12.2983 3.25306 -0.503435 -12.7592 -11.3528 -2.20588 -1.79258 -24.4016 -0.409932 -9.62457 
-1.34062 97.0885 -12.8549 135.2 -82.8621 134.655 -174.245 0.23759 91.8332 -12.4528 6.95696 2.46568 64.4987 2.50005 -1.62246 28.5042 -0.20786 1.99146 174.054 -0.355916 86.5596 -16.0802 -2.47377 -0.376663 68.2466 -2.55854 4.5459 28.1523 0.30959 -1.58737 0.143077 6.08398 -89.867 14.7056 0.349055 0.216824 3.03465 0.358269 0.201239 -19.5006 0.267754 0.311704 0.512032 0.267754 0.311706 107.217 -0.972989 -62.5713 21.6872 39.1209 -104.264 17.6619 41.5289 -28.3694 -5.34772 0.331155 -13.7665 -75.5129 -14.7818 102.732 -11.5698 -41.8015 -116.511 2.66967 -41.5297 -11.0449 2.02876 -0.421353 -12.9563 -10.7477 -2.35261 -2.03064 -24.7233 -0.709231 -8.53301 
-1.2782 97.0942 -13.0413 135.047 -82.6719 134.448 -174.461 0.319617 91.6538 -12.6264 6.8218 2.59281 64.378 2.4291 -1.61531 28.5172 -0.186748 1.80335 174.077 -0.448257 86.5151 -15.9739 -2.25858 -0.461761 68.2942 -2.52293 4.77366 27.9767 0.371438 -1.74526 0.13299 6.13828 -89.8398 14.5969 0.342433 0.272736 2.92592 0.354099 0.257399 -19.6092 0.244633 0.36304 0.40344 0.244632 0.36304 107.165 -1.53302 -63.1008 21.3368 38.1773 -103.541 17.2739 40.7802 -27.9216 -3.6809 0.226869 -14.4768 -75.81 -14.352 102.016 -11.8081 -40.1514 -116.808 3.17936 -41.7749 -9.81125 1.3362 -0.37764 -13.2497 -10.2447 -2.89709 -2.81101 -24.0183 -1.34818 -8.07463 
-1.22003 97.0997 -13.232 134.755 -82.5386 134.183 -174.544 0.418106 91.6105 -12.7255 6.50578 2.66426 64.5146 2.41948 -1.95455 28.0644 -0.123729 1.64949 174.075 -0.246382 86.5046 -16.2472 -2.3013 -0.440315 68.0677 -2.35947 4.5401 28.0384 0.328183 -1.47149 0.0863986 6.17537 -89.8445 14.5228 0.247849 0.277061 2.85185 0.259797 0.265883 -19.6832 0.153119 0.33874 0.329499 0.153112 0.338739 107.014 -1.93597 -63.8896 20.3964 36.5715 -102.458 18.3085 41.5912 -28.4723 -2.83329 0.140943 -13.8291 -75.9338 -14.5085 101.684 -11.0982 -38.4593 -116.399 2.51912 -42.8606 -9.07435 -0.318774 -0.254379 -13.4677 -9.24559 -2.96308 -2.46691 -23.8391 -1.45127 -7.89489 
-1.19945 97.1118 -13.3822 135.607 -82.4243 135.149 -174.367 0.390078 91.7857 -12.7596 7.24443 2.55618 64.3755 2.46488 -1.50052 28.2061 -0.175914 1.96194 174.026 -0.401957 86.5665 -16.0498 -2.3585 -0.346689 67.7952 -2.38741 4.3391 28.2375 0.260503 -1.31068 0.0492906 6.19891 -89.8636 14.4758 0.164928 0.250626 2.80481 0.175802 0.243119 -19.7302 0.0819763 0.288611 0.282458 0.0819836 0.288607 106.625 -2.22469 -65.4759 18.2748 34.7246 -99.8284 19.9568 42.2856 -29.4147 -2.23858 0.0952006 -13.7584 -76.328 -14.8087 100.65 -10.3813 -36.073 -115.395 2.36434 -41.6833 -7.76996 -2.5475 -0.0764612 -13.5621 -8.39381 -2.75115 -1.55724 -23.9407 -1.19329 -8.33037 
-1.19108 97.1384 -13.5854 138.996 -82.4246 138.617 -174.25 0.186015 91.8777 -12.7682 6.58239 2.56169 64.3921 2.34644 -1.96225 28.074 -0.139243 1.76659 174.007 -0.613022 86.5789 -15.9828 -2.58213 -0.363682 68.0234 -2.51771 4.57801 27.5047 0.46434 -1.43112 0.05578 6.27222 -89.8659 14.3292 0.17641 0.244351 2.65827 0.186993 0.236339 -19.8768 0.0948098 0.286072 0.135897 0.094818 0.286068 106.357 -3.39941 -66.9945 15.0805 33.0594 -96.4963 20.8918 41.0082 -30.1145 -1.26879 0.0214993 -13.7561 -76.6168 -14.8952 99.9057 -8.83988 -33.8424 -113.479 0.75728 -40.5887 -7.72009 -3.3611 -0.00799899 -13.9444 -7.25242 -2.97794 -1.59681 -23.0548 -1.47212 -8.30449 
-1.11118 97.1478 -13.8096 140.327 -82.53 140.142 -174.252 0.391835 91.959 -13.0017 6.69494 2.5999 64.3328 2.39359 -1.59748 28.3397 -0.139691 1.55879 174.061 -0.500613 86.6821 -15.8912 -2.82367 -0.314506 67.5979 -2.3341 4.46479 27.8065 0.370873 -1.2804 0.0578393 6.30699 -89.9161 14.2598 0.155838 0.146869 2.58884 0.16215 0.139864 -19.9463 0.104485 0.186911 0.0663594 0.104491 0.186907 105.855 -4.99344 -69.396 11.2854 31.3049 -91.9158 23.3793 39.9626 -32.6818 -1.01612 0.00449776 -14.0602 -77.0429 -15.4556 98.8171 -8.57533 -30.2428 -111.263 -1.2786 -38.4905 -9.08048 -3.27484 -0.0198337 -13.3324 -6.20258 -2.92821 -1.10474 -22.1296 -1.49073 -8.44149 
-1.02562 97.1496 -13.99 142.191 -82.8544 142.003 -174.234 0.381196 91.8984 -12.6488 6.32752 2.52203 64.3046 2.39083 -1.60102 28.0561 -0.0975693 1.44466 174.074 -0.25863 86.591 -15.7456 -3.3917 -0.289893 67.2615 -2.21924 4.23717 28.0839 0.291824 -1.21842 0.0779337 6.30159 -89.9288 14.2706 0.189439 0.116649 2.59968 0.19439 0.108198 -19.9355 0.145622 0.168192 0.0771329 0.145623 0.168192 105.457 -7.29975 -71.4102 7.88871 28.4773 -87.3472 27.1686 38.3577 -37.392 -2.04311 0.0679146 -12.9154 -77.7735 -16.2315 96.9506 -7.59831 -26.7308 -107.096 -5.74522 -37.5638 -13.211 -3.71037 0.0165957 -13.5211 -6.24303 -2.88125 -1.21826 -19.8072 -1.68287 -7.91126 
-0.950808 97.1598 -14.1683 141.902 -82.9644 141.77 -174.295 0.594844 91.8569 -12.665 5.95797 2.54811 64.4217 2.34837 -1.85996 27.5063 -0.00453294 1.15041 173.961 -0.0698377 86.4959 -15.699 -3.31567 -0.166443 67.4153 -2.17901 4.39997 27.3827 0.424832 -0.741301 0.0618311 6.27599 -89.964 14.3219 0.140221 0.0527047 2.65099 0.142398 0.0464753 -19.8842 0.117895 0.092407 0.128441 0.117891 0.0923998 105.104 -8.08043 -72.7558 9.01322 23.1985 -84.7174 28.1937 35.3075 -40.0966 -1.78933 0.0517837 -12.847 -78.1645 -17.9015 96.0189 -7.71598 -21.9165 -103.25 -10.8467 -36.0024 -19.0556 -3.41212 -0.0121555 -12.9916 -5.53793 -2.44539 -0.348718 -19.5013 -1.23788 -8.64251 
-0.855217 97.1402 -14.3518 142.029 -83.1848 141.846 -174.376 0.883641 91.7163 -12.7522 6.48357 2.47169 63.8267 1.9934 -1.33285 28.3228 -0.170546 1.82143 173.937 0.291583 86.3554 -15.7778 -3.67041 -0.127686 67.4145 -2.03657 4.62148 27.1066 0.587256 -1.60334 0.0739063 6.28105 -89.9488 14.3118 0.171589 0.078724 2.64086 0.17489 0.0710912 -19.8944 0.139989 0.126649 0.118295 0.139999 0.126655 104.858 -11.1395 -74.1721 7.29613 19.3404 -80.3949 31.7618 33.5405 -45.3681 -2.76939 0.0899001 -11.2716 -78.349 -20.1214 95.6438 -8.03778 -16.9764 -99.6772 -15.431 -33.4455 -24.9639 -3.45314 -0.0105831 -12.7792 -4.16641 -2.41373 -1.96035 -20.6891 -1.16041 -7.14363 
-0.813089 97.114 -14.4809 140.721 -83.2127 140.596 -174.37 1.23044 91.7382 -12.9845 6.52385 2.44557 63.9449 1.91914 -1.35133 28.0157 -0.110656 1.58625 173.993 0.484173 86.4138 -15.7968 -3.53789 -0.132686 67.3475 -1.94294 4.63875 27.3015 0.519292 -1.446 0.0668509 6.30388 -89.9888 14.2661 0.137972 0.00334564 2.59515 0.137989 -0.00273751 -19.9401 0.130585 0.0446543 0.0725913 0.130589 0.0446543 104.51 -14.0416 -75.596 5.93294 15.0213 -75.4044 32.138 29.4328 -49.379 -2.5972 0.0722849 -10.8688 -79.6613 -22.6163 92.7734 -7.08837 -13.135 -92.4514 -22.4009 -32.6764 -33.4388 -1.73387 -0.133855 -12.1296 -2.22151 -2.90459 -1.62656 -22.0048 -1.35678 -8.47459 
-0.760313 97.1213 -14.5743 140.06 -83.283 139.869 -174.421 1.27752 91.633 -12.7626 6.3103 2.41505 64.0326 1.96771 -1.49577 27.6805 -0.0534393 1.3909 173.975 0.633561 86.3288 -15.7004 -3.52653 -0.126541 67.1989 -2.01156 4.33403 27.5499 0.405183 -0.967211 0.0182646 6.33551 -89.9679 14.2028 0.0519905 0.0573204 2.53186 0.0544626 0.054967 -20.0033 0.0323615 0.0702983 0.00935714 0.0323586 0.0702926 104.087 -18.4358 -77.263 3.94601 10.1697 -69.9704 34.2394 26.428 -55.1365 -5.10936 0.147771 -9.62294 -79.9914 -24.3962 92.1832 -7.93051 -7.57614 -86.2729 -25.1389 -28.0833 -39.6618 -0.799673 -0.19571 -11.8823 0.209364 -3.08387 -2.008 -22.989 -1.33257 -8.68085 
-0.718518 97.1276 -14.5999 139.145 -83.4401 139.08 -174.387 1.43667 91.7251 -12.6131 6.68983 2.39211 63.9985 2.11687 -0.949031 27.5645 0.00427631 1.03523 173.974 0.783341 86.4113 -15.5766 -3.75771 -0.029566 67.0267 -1.96846 4.26815 27.6969 0.392343 -1.21715 -0.00985859 6.38863 -90.0075 14.0966 -0.0231467 -0.0118633 2.4257 -0.0236431 -0.0108383 -20.1095 -0.018525 -0.018274 -0.0968109 -0.0185097 -0.0182703 103.875 -21.4587 -78.0557 5.22994 4.19495 -65.316 33.0524 22.7915 -58.8769 -5.34554 0.129881 -8.90284 -80.145 -27.2877 92.0832 -7.75136 -2.39722 -80.4951 -28.5236 -25.4266 -45.5709 2.60524 -0.377022 -10.9536 2.99265 -3.08756 -1.29958 -23.8628 -1.35391 -8.53481 
-0.753041 97.124 -14.5438 137.507 -83.7219 137.344 -174.405 1.80164 91.6442 -12.7998 6.06334 2.33256 63.9956 1.82399 -1.74405 27.5368 -0.0264215 1.29593 174.019 1.14259 86.3773 -15.6773 -3.64475 -0.069458 67.1611 -2.05079 4.18104 27.4329 0.431382 -0.926319 -0.0975945 6.42741 -89.979 14.0191 -0.18309 0.0669914 2.34817 -0.179966 0.0749822 -20.1871 -0.194764 0.00886984 -0.17445 -0.194759 0.00886906 103.154 -25.4691 -79.9503 6.63496 -2.03404 -58.6967 30.5707 18.9495 -63.1154 -5.98509 0.0911767 -7.64125 -80.3518 -30.3209 91.9031 -7.8915 2.81864 -73.7836 -28.87 -22.079 -49.2819 0.0760353 -0.230342 -11.023 5.96747 -2.92933 -0.882098 -25.4574 -1.09683 -8.60992 
-0.782521 97.1108 -14.457 137.021 -83.9858 136.844 -174.412 1.87788 91.6257 -12.6158 6.16709 2.30163 64.0853 2.01119 -1.30849 27.4801 0.0208232 0.976269 174.101 1.28399 86.408 -15.6007 -3.56302 -0.129928 67.3361 -2.06717 4.49075 27.2169 0.51501 -1.19349 -0.16146 6.47135 -89.9271 13.9316 -0.284404 0.184811 2.26067 -0.275996 0.197141 -20.2747 -0.326795 0.0907914 -0.262044 -0.326805 0.0907846 102.533 -29.5772 -81.3617 9.15883 -8.43026 -51.453 27.6928 16.0714 -66.907 -7.47876 0.0457606 -6.31792 -79.9828 -32.7656 92.7725 -8.98478 8.57085 -67.516 -30.4667 -20.8817 -52.7349 1.80256 -0.30141 -10.1102 8.21642 -2.62768 -0.787982 -26.1049 -0.817503 -8.22453 
-0.775831 97.093 -14.3247 136.039 -84.133 135.839 -174.55 1.94282 91.5272 -12.5748 6.09581 2.39261 64.1112 2.01485 -1.21129 27.5506 0.00501698 1.04124 174.055 1.40543 86.339 -15.6155 -3.5634 -0.0832163 67.2842 -1.91634 4.63502 27.6968 0.389729 -1.19501 -0.111728 6.56931 -89.9613 13.7355 -0.202673 0.10406 2.06452 -0.197891 0.112875 -20.4707 -0.224572 0.0383397 -0.458111 -0.224578 0.0383341 102.229 -33.2159 -82.0325 11.3396 -13.9579 -43.2129 24.616 14.1658 -70.1673 -8.12521 0.0189107 -5.78071 -80.3944 -35.2947 92.1774 -11.9874 13.1706 -60.7902 -29.2006 -18.9855 -54.0885 0.795623 -0.244846 -9.94886 10.7507 -2.62604 -0.0204469 -26.6224 -1.05716 -7.61738 
-0.792888 97.077 -14.1382 135.608 -84.2465 135.352 -174.558 1.89898 91.4821 -12.5253 5.69552 2.398 64.2935 2.01002 -1.5524 27.4712 0.034861 0.873641 174.064 1.4663 86.343 -15.6906 -4.02822 -0.0837446 67.1997 -2.14053 3.7472 28.0746 0.217342 -0.429063 -0.0206348 6.67479 -90.0184 13.5243 -0.0497893 -0.0303476 1.85335 -0.0510672 -0.0281289 -20.6818 -0.0383637 -0.0439084 -0.669169 -0.0383676 -0.0439155 101.763 -35.8098 -82.9152 16.0851 -17.9582 -33.637 21.8729 12.6758 -72.8578 -9.30918 -0.0834612 -4.35375 -81.5072 -39.0557 90.4736 -12.4038 16.8892 -53.5686 -28.7903 -17.5858 -55.6045 1.23674 -0.269655 -10.051 12.5721 -2.80888 1.62754 -27.1326 -1.54973 -7.89335 
-0.807472 97.0906 -13.9897 133.886 -84.0838 133.789 -174.457 1.82682 91.671 -12.4484 5.94727 2.42426 64.4232 2.17108 -1.53098 27.417 0.0410358 0.86919 174.078 1.26877 86.5228 -15.5736 -3.68371 -0.0497565 67.2344 -2.12877 4.03295 28.0749 0.264562 -0.913989 -0.0275283 6.80669 -90.074 13.2604 -0.0902727 -0.1369 1.58947 -0.0962163 -0.132805 -20.9456 -0.0449601 -0.157702 -0.932984 -0.0449628 -0.157712 101.209 -39.345 -83.8737 18.8436 -20.8711 -25.19 19.542 12.1302 -74.0205 -9.54986 -0.0976462 -4.16342 -83.1905 -42.5829 87.9653 -14.1502 18.7286 -44.9593 -28.0612 -16.4756 -56.6961 0.0658193 -0.207877 -9.9017 12.6483 -3.0334 1.61714 -23.7807 -2.51041 -5.04151 
